<mxfile host="app.diagrams.net" modified="2023-08-18T06:48:12.223Z" agent="Mozilla/5.0 (Macintosh; Intel Mac OS X 10_15_7) AppleWebKit/537.36 (KHTML, like Gecko) Chrome/115.0.0.0 Safari/537.36" etag="DwEh_-cRa7PZenkLATwu" version="21.6.8" type="github">
  <diagram id="G4P6LVn_tdNzB0rgpYjd" name="第 2 页">
    <mxGraphModel dx="1434" dy="678" grid="1" gridSize="10" guides="1" tooltips="1" connect="1" arrows="1" fold="1" page="1" pageScale="1" pageWidth="827" pageHeight="1169" math="0" shadow="0">
      <root>
        <mxCell id="0" />
        <mxCell id="1" parent="0" />
        <mxCell id="_AEby4im_TMSWhvR3xSp-1" value="" style="group" parent="1" vertex="1" connectable="0">
          <mxGeometry x="30" y="31.095620926345333" width="440" height="437.8087581473094" as="geometry" />
        </mxCell>
        <mxCell id="G0SLlKrIvwMYq-acm65V-2" value="1" style="ellipse;whiteSpace=wrap;html=1;aspect=fixed;" parent="_AEby4im_TMSWhvR3xSp-1" vertex="1">
          <mxGeometry x="400" y="198.90437907365467" width="40" height="40" as="geometry" />
        </mxCell>
        <mxCell id="G0SLlKrIvwMYq-acm65V-3" value="2" style="ellipse;whiteSpace=wrap;html=1;aspect=fixed;" parent="_AEby4im_TMSWhvR3xSp-1" vertex="1">
          <mxGeometry x="395.62952014676114" y="240.48671723720653" width="40" height="40" as="geometry" />
        </mxCell>
        <mxCell id="G0SLlKrIvwMYq-acm65V-4" value="3" style="ellipse;whiteSpace=wrap;html=1;aspect=fixed;" parent="_AEby4im_TMSWhvR3xSp-1" vertex="1">
          <mxGeometry x="382.70909152852016" y="280.2517076888147" width="40" height="40" as="geometry" />
        </mxCell>
        <mxCell id="G0SLlKrIvwMYq-acm65V-5" value="4" style="ellipse;whiteSpace=wrap;html=1;aspect=fixed;" parent="_AEby4im_TMSWhvR3xSp-1" vertex="1">
          <mxGeometry x="361.8033988749895" y="316.4614295321493" width="40" height="40" as="geometry" />
        </mxCell>
        <mxCell id="G0SLlKrIvwMYq-acm65V-6" value="5" style="ellipse;whiteSpace=wrap;html=1;aspect=fixed;" parent="_AEby4im_TMSWhvR3xSp-1" vertex="1">
          <mxGeometry x="333.8261212717716" y="347.53334416913356" width="40" height="40" as="geometry" />
        </mxCell>
        <mxCell id="G0SLlKrIvwMYq-acm65V-7" value="6" style="ellipse;whiteSpace=wrap;html=1;aspect=fixed;" parent="_AEby4im_TMSWhvR3xSp-1" vertex="1">
          <mxGeometry x="300" y="372.1094598305424" width="40" height="40" as="geometry" />
        </mxCell>
        <mxCell id="G0SLlKrIvwMYq-acm65V-8" value="7" style="ellipse;whiteSpace=wrap;html=1;aspect=fixed;" parent="_AEby4im_TMSWhvR3xSp-1" vertex="1">
          <mxGeometry x="261.8033988749895" y="389.1156823326854" width="40" height="40" as="geometry" />
        </mxCell>
        <mxCell id="G0SLlKrIvwMYq-acm65V-9" value="8" style="ellipse;whiteSpace=wrap;html=1;aspect=fixed;" parent="_AEby4im_TMSWhvR3xSp-1" vertex="1">
          <mxGeometry x="220.9056926535307" y="397.8087581473094" width="40" height="40" as="geometry" />
        </mxCell>
        <mxCell id="G0SLlKrIvwMYq-acm65V-10" value="9" style="ellipse;whiteSpace=wrap;html=1;aspect=fixed;" parent="_AEby4im_TMSWhvR3xSp-1" vertex="1">
          <mxGeometry x="179.09430734646932" y="397.8087581473094" width="40" height="40" as="geometry" />
        </mxCell>
        <mxCell id="G0SLlKrIvwMYq-acm65V-11" value="10" style="ellipse;whiteSpace=wrap;html=1;aspect=fixed;" parent="_AEby4im_TMSWhvR3xSp-1" vertex="1">
          <mxGeometry x="138.19660112501055" y="389.1156823326854" width="40" height="40" as="geometry" />
        </mxCell>
        <mxCell id="G0SLlKrIvwMYq-acm65V-12" value="11" style="ellipse;whiteSpace=wrap;html=1;aspect=fixed;" parent="_AEby4im_TMSWhvR3xSp-1" vertex="1">
          <mxGeometry x="100.00000000000006" y="372.1094598305424" width="40" height="40" as="geometry" />
        </mxCell>
        <mxCell id="G0SLlKrIvwMYq-acm65V-13" value="12" style="ellipse;whiteSpace=wrap;html=1;aspect=fixed;" parent="_AEby4im_TMSWhvR3xSp-1" vertex="1">
          <mxGeometry x="66.17387872822843" y="347.53334416913356" width="40" height="40" as="geometry" />
        </mxCell>
        <mxCell id="G0SLlKrIvwMYq-acm65V-14" value="13" style="ellipse;whiteSpace=wrap;html=1;aspect=fixed;" parent="_AEby4im_TMSWhvR3xSp-1" vertex="1">
          <mxGeometry x="38.196601125010545" y="316.4614295321493" width="40" height="40" as="geometry" />
        </mxCell>
        <mxCell id="G0SLlKrIvwMYq-acm65V-15" value="14" style="ellipse;whiteSpace=wrap;html=1;aspect=fixed;" parent="_AEby4im_TMSWhvR3xSp-1" vertex="1">
          <mxGeometry x="17.29090847147981" y="280.2517076888147" width="40" height="40" as="geometry" />
        </mxCell>
        <mxCell id="G0SLlKrIvwMYq-acm65V-16" value="15" style="ellipse;whiteSpace=wrap;html=1;aspect=fixed;" parent="_AEby4im_TMSWhvR3xSp-1" vertex="1">
          <mxGeometry x="4.370479853238862" y="240.48671723720653" width="40" height="40" as="geometry" />
        </mxCell>
        <mxCell id="G0SLlKrIvwMYq-acm65V-17" value="16" style="ellipse;whiteSpace=wrap;html=1;aspect=fixed;" parent="_AEby4im_TMSWhvR3xSp-1" vertex="1">
          <mxGeometry y="198.90437907365478" width="40" height="40" as="geometry" />
        </mxCell>
        <mxCell id="G0SLlKrIvwMYq-acm65V-18" value="17" style="ellipse;whiteSpace=wrap;html=1;aspect=fixed;" parent="_AEby4im_TMSWhvR3xSp-1" vertex="1">
          <mxGeometry x="4.370479853238862" y="157.32204091010286" width="40" height="40" as="geometry" />
        </mxCell>
        <mxCell id="G0SLlKrIvwMYq-acm65V-19" value="18" style="ellipse;whiteSpace=wrap;html=1;aspect=fixed;" parent="_AEby4im_TMSWhvR3xSp-1" vertex="1">
          <mxGeometry x="17.29090847147984" y="117.55705045849461" width="40" height="40" as="geometry" />
        </mxCell>
        <mxCell id="G0SLlKrIvwMYq-acm65V-20" value="19" style="ellipse;whiteSpace=wrap;html=1;aspect=fixed;" parent="_AEby4im_TMSWhvR3xSp-1" vertex="1">
          <mxGeometry x="38.19660112501049" y="81.34732861516008" width="40" height="40" as="geometry" />
        </mxCell>
        <mxCell id="G0SLlKrIvwMYq-acm65V-21" value="20" style="ellipse;whiteSpace=wrap;html=1;aspect=fixed;" parent="_AEby4im_TMSWhvR3xSp-1" vertex="1">
          <mxGeometry x="66.17387872822832" y="50.27541397817586" width="40" height="40" as="geometry" />
        </mxCell>
        <mxCell id="G0SLlKrIvwMYq-acm65V-22" value="21" style="ellipse;whiteSpace=wrap;html=1;aspect=fixed;" parent="_AEby4im_TMSWhvR3xSp-1" vertex="1">
          <mxGeometry x="99.99999999999991" y="25.699298316767" width="40" height="40" as="geometry" />
        </mxCell>
        <mxCell id="G0SLlKrIvwMYq-acm65V-23" value="22" style="ellipse;whiteSpace=wrap;html=1;aspect=fixed;" parent="_AEby4im_TMSWhvR3xSp-1" vertex="1">
          <mxGeometry x="138.1966011250105" y="8.693075814623967" width="40" height="40" as="geometry" />
        </mxCell>
        <mxCell id="G0SLlKrIvwMYq-acm65V-24" value="23" style="ellipse;whiteSpace=wrap;html=1;aspect=fixed;" parent="_AEby4im_TMSWhvR3xSp-1" vertex="1">
          <mxGeometry x="179.09430734646915" width="40" height="40" as="geometry" />
        </mxCell>
        <mxCell id="G0SLlKrIvwMYq-acm65V-25" value="24" style="ellipse;whiteSpace=wrap;html=1;aspect=fixed;" parent="_AEby4im_TMSWhvR3xSp-1" vertex="1">
          <mxGeometry x="220.9056926535306" width="40" height="40" as="geometry" />
        </mxCell>
        <mxCell id="G0SLlKrIvwMYq-acm65V-26" value="25" style="ellipse;whiteSpace=wrap;html=1;aspect=fixed;" parent="_AEby4im_TMSWhvR3xSp-1" vertex="1">
          <mxGeometry x="261.80339887498945" y="8.693075814623938" width="40" height="40" as="geometry" />
        </mxCell>
        <mxCell id="G0SLlKrIvwMYq-acm65V-27" value="26" style="ellipse;whiteSpace=wrap;html=1;aspect=fixed;" parent="_AEby4im_TMSWhvR3xSp-1" vertex="1">
          <mxGeometry x="300" y="25.699298316766942" width="40" height="40" as="geometry" />
        </mxCell>
        <mxCell id="G0SLlKrIvwMYq-acm65V-28" value="27" style="ellipse;whiteSpace=wrap;html=1;aspect=fixed;" parent="_AEby4im_TMSWhvR3xSp-1" vertex="1">
          <mxGeometry x="333.8261212717717" y="50.27541397817586" width="40" height="40" as="geometry" />
        </mxCell>
        <mxCell id="G0SLlKrIvwMYq-acm65V-29" value="28" style="ellipse;whiteSpace=wrap;html=1;aspect=fixed;" parent="_AEby4im_TMSWhvR3xSp-1" vertex="1">
          <mxGeometry x="361.80339887498945" y="81.34732861516" width="40" height="40" as="geometry" />
        </mxCell>
        <mxCell id="G0SLlKrIvwMYq-acm65V-30" value="29" style="ellipse;whiteSpace=wrap;html=1;aspect=fixed;" parent="_AEby4im_TMSWhvR3xSp-1" vertex="1">
          <mxGeometry x="382.70909152852016" y="117.55705045849464" width="40" height="40" as="geometry" />
        </mxCell>
        <mxCell id="G0SLlKrIvwMYq-acm65V-31" value="30" style="ellipse;whiteSpace=wrap;html=1;aspect=fixed;" parent="_AEby4im_TMSWhvR3xSp-1" vertex="1">
          <mxGeometry x="395.62952014676114" y="157.32204091010286" width="40" height="40" as="geometry" />
        </mxCell>
        <mxCell id="VBgXbtqYkseOgTcg2eTX-1" value="" style="endArrow=classic;html=1;rounded=0;" edge="1" parent="1">
          <mxGeometry width="50" height="50" relative="1" as="geometry">
            <mxPoint x="490" y="585" as="sourcePoint" />
            <mxPoint x="130" y="585" as="targetPoint" />
          </mxGeometry>
        </mxCell>
      </root>
    </mxGraphModel>
  </diagram>
</mxfile>
